<?xml version="1.0" encoding="utf-8"?>
<!-- Generator: Adobe Illustrator 24.3.0, SVG Export Plug-In . SVG Version: 6.00 Build 0)  -->
<svg version="1.1" id="Слой_1" xmlns="http://www.w3.org/2000/svg" xmlns:xlink="http://www.w3.org/1999/xlink" x="0px" y="0px"
	 viewBox="0 0 2000 2000" style="enable-background:new 0 0 2000 2000;" xml:space="preserve">
<style type="text/css">
	.st0{display:none;fill:#1A1A1A;}
	.st1{fill:#FFFFFF;}
</style>
<path class="st0" d="M1873.3,1828.7v-733.5H1095v778.3h733.5l-247.4-247.4l44.8-44.8L1873.3,1828.7z M1873.3,1828.7v-733.5H1095
	v778.3h733.5l-247.4-247.4l44.8-44.8L1873.3,1828.7z M0,0v2000h2000V0H0z M968.3,127.1H126.7V661h841.6v679.5H126.7v80.5h841.6
	v515.8H905v-452.5H126.7v452.5H63.3V851h63.3v426.2H905V724.4H63.3V63.8h905L968.3,127.1L968.3,127.1z M1936.7,1936.9h-905v-905h905
	V1936.9z M1936.7,968.6h-63.3V161.9l-347.9,415.4l-41.3,49.3l-41.3-49.3L1095,162v806.5h-63.3V63.1h63.3v0.2L1484.1,528l389.2-464.8
	v0h63.3V968.6z M1581.1,1626.2l44.8-44.8l247.4,247.4v-733.5H1095v778.3h733.5L1581.1,1626.2z M1873.3,1828.7v-733.5H1095v778.3
	h733.5l-247.4-247.4l44.8-44.8L1873.3,1828.7z M1873.3,1828.7v-733.5H1095v778.3h733.5l-247.4-247.4l44.8-44.8L1873.3,1828.7z"/>
<g>
	<polygon class="st1" points="1533.4,1580.5 1580.5,1533.4 1800,1752.9 1800,1100 1100,1100 1100,1800 1752.9,1800 	"/>
	<path class="st1" d="M1901.6,0h-151.5h-600.2H165.1H0v2000h2000V0H1901.6z M966.7,1317.5H200v65.8h766.7v483.3H900V1450H200v416.7
		h-66.7V883.3H200v367.5h700V750H133.3V133.3h31.8h801.6V200H200v242.4v240.9h766.7V1317.5z M1866.7,1866.7h-833.3v-833.3h833.3
		V1866.7z M1866.7,966.7H1800V442.4V237l-172.6,205.4l-133.9,159.4l-23.7,28.2c-6.6,7.9-13.2,15.8-19.9,23.6
		c-6.6-7.9-13.2-15.8-19.8-23.6l-23.7-28.2l-133.9-159.4L1100,237v205.5v524.2h-66.7V442.4V133.3h66.7l259.7,309.1L1450,550
		l90.3-107.6L1800,133.4v0h66.7v309.1V966.7z"/>
</g>
</svg>
